<?xml version="1.0" encoding="utf-8"?>
<!-- Generator: Adobe Illustrator 28.1.0, SVG Export Plug-In . SVG Version: 6.00 Build 0)  -->
<svg version="1.1" id="Layer_1" xmlns="http://www.w3.org/2000/svg" xmlns:xlink="http://www.w3.org/1999/xlink" x="0px" y="0px"
	 viewBox="0 0 467.3 457.4" style="enable-background:new 0 0 467.3 457.4;" xml:space="preserve">
<style type="text/css">
	.st0{fill:none;stroke:#FFC800;stroke-width:2;stroke-miterlimit:10;}
</style>
<path class="st0" d="M336.6,209.3c24.2-13.7,50.3-21.3,67.6-43.1c47.9-57.1-3.9-149.1-74.6-126.8
	c-64.9,21.9-113.2,161.9-150.3,212.6C110.2,344.3-47,270.2,26.5,158.8c27.7-37.2,85.3-22.9,98.6,16c30.8,85.8,5.4,302.8,124,260.5
	c18.6-6.6,35.4-17.1,50.7-29.6c40.2-32.7,80.4-65.3,120.6-98c29.4-21.6,49.4-62.5,31.2-101.9c-48.8-105.4-215-41.7-282.3-23.4
	c-34,10.4-73.2,40-101.4,11.1c-52.5-71.2,56.2-162,126.8-152.2c191.1,10.4,181,453.1-35.4,341.7c-50.2-34.5-78.2-109.3-54.1-166.9
	c35.8-60.8,156.4-118.3,225.3-99.8c195.6,34,57.2,435-49.3,259.4C99.3-72.2,477.4-47.6,321.9,198.3c-74.7,99.8-181.5,12.9-264,62.3
	C16.1,290.3,35,387.8,109.3,399.2c87.7,13.5,125.2-150.5,49.9-214.4c-16.8-16.2-37.1-28.7-52.9-45.8c-40.9-40.1-21.7-103.3,39-98.7
	C230,55.5,204.5,173,222.2,238.4c40.9,141.3,309.9,151.8,171.9,23.3c-37.4-32.2-58.6-45.3-82.8-1.2c-89.4,194-337.2,68.8-238-110.9
	c32.3-49,70.9-39.1,110.7-5.4c48.1,33.5,111.3,44.3,167.8,28.8c139.9-51.5-85.5-183.4-178.2-138.7c-51.9,15-56.9,58.1-6.5,79.6
	C448,220.6,353.3,507.8,120.2,380.8c-55.4-39.1-63.8-133.5,0-167.9c32-17.1,71.4-11,106.3-21.2c47.8-11.4,84.9-68.3,56.5-113.4
	c-103.8-166.7-124.5,14.1-130.6,120c-3.6,57.7-7,150.7,66.7,141.9c51.7-14.7,72.9-96,101.5-138.5c9.3-17.2,22.6-36.8,42.1-36.1
	c51.1,8.2,46.8,111.3,33.1,148.8c-47.2,121.5-203.2,79.4-157-53.8C294.5,112.8,49.8,96,35.8,187c-2.8,51.7,60.7,70.5,102.1,54.3
	c49-16.4,93.2-49.9,146.2-53c57.7-8.2,126.6,39.6,108.1,102.2c-67.1,135.6-285.3-26-218.5-155.9c29.6-71.5,146.5-86.4,173.8-9.5
	c45.7,128.5-114.1,164.5-139,82c-17.4-57.4-11.8-84.7,1.7-90.7c16.3-7.2,57.4,72.9,58.8,130.4c3.8,159.8-54.6,195.7-78.5,204.9"/>
</svg>
